HIERARCHY
ROOT Hips
{
	OFFSET 0.000000 89.005402 0.000000
	CHANNELS 6 Xposition Yposition Zposition Xrotation Yrotation Zrotation
	JOINT Spine
	{
		OFFSET 0.116900 10.681000 0.373400
		CHANNELS 3 Xrotation Yrotation Zrotation
		JOINT Spine1
		{
			OFFSET 0.000000 13.840401 0.053500
			CHANNELS 3 Xrotation Yrotation Zrotation
			JOINT Spine2
			{
				OFFSET 0.000000 14.712700 -0.366200
				CHANNELS 3 Xrotation Yrotation Zrotation
				JOINT Neck
				{
					OFFSET 0.000000 35.415497 -3.314200
					CHANNELS 3 Xrotation Yrotation Zrotation
					JOINT Head
					{
						OFFSET 0.000000 16.899200 1.218300
						CHANNELS 3 Xrotation Yrotation Zrotation
						JOINT HeadTop_End
						{
							OFFSET 0.000000 22.206207 2.192500
							CHANNELS 3 Xrotation Yrotation Zrotation
							End Site
							{
								OFFSET 0.000000 22.314178 0.000000
							}
						}
					}
				}
				JOINT LeftShoulder
				{
					OFFSET 12.896400 26.716293 -4.548400
					CHANNELS 3 Xrotation Yrotation Zrotation
					JOINT LeftArm
					{
						OFFSET 19.027000 -4.857010 -1.718400
						CHANNELS 3 Xrotation Yrotation Zrotation
						JOINT LeftForeArm
						{
							OFFSET 24.179897 0.000000 0.000000
							CHANNELS 3 Xrotation Yrotation Zrotation
							JOINT LeftHand
							{
								OFFSET 27.156403 0.000000 0.000000
								CHANNELS 3 Xrotation Yrotation Zrotation
								JOINT LeftHandIndex1
								{
									OFFSET 16.441200 0.000000 0.000000
									CHANNELS 3 Xrotation Yrotation Zrotation
									JOINT LeftHandIndex2
									{
										OFFSET 4.821899 0.000000 0.000000
										CHANNELS 3 Xrotation Yrotation Zrotation
										JOINT LeftHandIndex3
										{
											OFFSET 6.386497 0.000000 0.000000
											CHANNELS 3 Xrotation Yrotation Zrotation
											JOINT LeftHandIndex4
											{
												OFFSET 5.188988 0.000000 0.000000
												CHANNELS 3 Xrotation Yrotation Zrotation
												End Site
												{
													OFFSET -0.178703 5.185913 0.000177
												}
											}
										}
									}
								}
								JOINT LeftHandThumb1
								{
									OFFSET 6.534897 -5.032593 5.900300
									CHANNELS 3 Xrotation Yrotation Zrotation
									JOINT LeftHandThumb2
									{
										OFFSET 3.818176 -2.204422 2.204423
										CHANNELS 3 Xrotation Yrotation Zrotation
										JOINT LeftHandThumb3
										{
											OFFSET 3.252098 -1.877594 1.877601
											CHANNELS 3 Xrotation Yrotation Zrotation
											JOINT LeftHandThumb4
											{
												OFFSET 5.251778 -3.032120 3.032117
												CHANNELS 3 Xrotation Yrotation Zrotation
												End Site
												{
													OFFSET 0.000023 6.780014 0.000000
												}
											}
										}
									}
								}
							}
						}
					}
				}
				JOINT RightShoulder
				{
					OFFSET -12.896300 26.716293 -4.548400
					CHANNELS 3 Xrotation Yrotation Zrotation
					JOINT RightArm
					{
						OFFSET -19.027000 -4.857010 -1.718400
						CHANNELS 3 Xrotation Yrotation Zrotation
						JOINT RightForeArm
						{
							OFFSET -24.179897 0.000000 0.000000
							CHANNELS 3 Xrotation Yrotation Zrotation
							JOINT RightHand
							{
								OFFSET -27.156403 0.000000 0.000000
								CHANNELS 3 Xrotation Yrotation Zrotation
								JOINT RightHandThumb1
								{
									OFFSET -6.591202 -4.852203 5.988100
									CHANNELS 3 Xrotation Yrotation Zrotation
									JOINT RightHandThumb2
									{
										OFFSET -3.818176 -2.204422 2.204423
										CHANNELS 3 Xrotation Yrotation Zrotation
										JOINT RightHandThumb3
										{
											OFFSET -3.252098 -1.877594 1.877601
											CHANNELS 3 Xrotation Yrotation Zrotation
											JOINT RightHandThumb4
											{
												OFFSET -5.251778 -3.032120 3.032117
												CHANNELS 3 Xrotation Yrotation Zrotation
												End Site
												{
													OFFSET -0.000023 6.780014 0.000000
												}
											}
										}
									}
								}
								JOINT RightHandIndex1
								{
									OFFSET -16.029404 0.000000 0.000000
									CHANNELS 3 Xrotation Yrotation Zrotation
									JOINT RightHandIndex2
									{
										OFFSET -5.213303 0.000000 0.000000
										CHANNELS 3 Xrotation Yrotation Zrotation
										JOINT RightHandIndex3
										{
											OFFSET -6.386528 0.000000 0.000000
											CHANNELS 3 Xrotation Yrotation Zrotation
											JOINT RightHandIndex4
											{
												OFFSET -5.189026 0.000000 0.000000
												CHANNELS 3 Xrotation Yrotation Zrotation
												End Site
												{
													OFFSET 0.236702 5.183624 0.001972
												}
											}
										}
									}
								}
							}
						}
					}
				}
			}
		}
	}
	JOINT LeftUpLeg
	{
		OFFSET 14.073000 -7.904099 -1.463000
		CHANNELS 3 Xrotation Yrotation Zrotation
		JOINT LeftLeg
		{
			OFFSET -0.109806 -34.073280 4.093200
			CHANNELS 3 Xrotation Yrotation Zrotation
			JOINT LeftFoot
			{
				OFFSET 0.109806 -29.899420 -6.319000
				CHANNELS 3 Xrotation Yrotation Zrotation
				JOINT LeftToeBase
				{
					OFFSET 1.551100 -14.988700 20.535801
					CHANNELS 3 Xrotation Yrotation Zrotation
					JOINT LeftToe_End
					{
						OFFSET 0.221200 0.570800 13.248301
						CHANNELS 3 Xrotation Yrotation Zrotation
						End Site
						{
							OFFSET 0.000000 13.262435 0.000000
						}
					}
				}
			}
		}
	}
	JOINT RightUpLeg
	{
		OFFSET -13.839300 -7.904099 -1.463000
		CHANNELS 3 Xrotation Yrotation Zrotation
		JOINT RightLeg
		{
			OFFSET 0.109694 -34.073219 4.093300
			CHANNELS 3 Xrotation Yrotation Zrotation
			JOINT RightFoot
			{
				OFFSET -0.109694 -29.899384 -6.319200
				CHANNELS 3 Xrotation Yrotation Zrotation
				JOINT RightToeBase
				{
					OFFSET -1.551100 -14.988700 20.535801
					CHANNELS 3 Xrotation Yrotation Zrotation
					JOINT RightToe_End
					{
						OFFSET -0.221200 0.570900 13.248299
						CHANNELS 3 Xrotation Yrotation Zrotation
						End Site
						{
							OFFSET 0.000000 13.262440 0.000000
						}
					}
				}
			}
		}
	}
}
MOTION
Frames: 4
Frame Time: 0.033333
-4.678742 127.520721 8.186651 -188.728959 10.373510 10.183374 12.726497 0.097335 0.080800 25.446788 1.354797 0.663521 25.446768 1.354796 0.663520 -27.686894 -4.330465 -3.554711 -33.568686 -10.220816 -1.723293 0.000001 0.000000 -0.000000 -3.545886 -36.589040 -14.017296 -14.399321 2.726266 -12.531680 -40.581535 -66.664996 -43.097462 -19.585001 -15.499222 -7.402047 1.159478 -0.982725 -41.640843 -1.578890 -0.251453 -30.484258 -0.000004 -0.000003 -0.000001 0.000000 -0.000001 -0.000001 -6.338716 6.204575 0.372976 -0.748485 0.391328 0.343690 -0.000007 -0.000010 0.000004 -0.000001 -0.000001 0.000001 0.340866 25.022758 6.291873 -25.872729 2.125859 24.558427 -18.120162 69.669207 24.631371 -21.983734 -8.236314 9.290877 -3.344001 -4.414485 12.404773 20.871410 -5.872097 -8.330025 0.000004 0.000018 -0.000006 0.000001 -0.000001 -0.000000 -1.098603 -0.541378 49.312590 -2.606170 0.047449 41.831535 -0.000001 -0.000003 -0.000009 0.000001 0.000001 -0.000000 -85.135419 -0.467570 13.241016 125.673923 -16.863450 -3.786834 -13.297419 1.737917 -4.432267 0.438161 1.996485 -1.540875 -0.000001 0.000001 -0.000001 -94.565164 12.572767 2.223827 113.629541 0.793805 -4.996616 13.745824 6.858124 16.605262 -6.231366 -6.985684 6.690277 -0.000000 -0.000000 0.000001 
-4.575489 125.884987 8.035507 -208.480514 6.260148 13.495127 13.191186 0.487134 0.338717 26.371077 2.062794 0.969090 26.371060 2.062796 0.969090 -20.940948 -4.243423 -3.784677 -32.335915 -8.818403 -1.093473 0.000001 -0.000000 0.000001 -3.101908 -36.573515 -12.349808 -13.428816 7.243827 -13.436406 -64.058138 -70.022532 -65.124713 -23.002796 -17.351850 -10.266343 1.140007 -1.339481 -39.364757 -1.603806 -0.291718 -30.855813 -0.000001 -0.000005 -0.000002 -0.000000 -0.000003 -0.000000 -7.219937 5.490112 2.136307 -0.784111 0.327815 0.330013 -0.000003 -0.000008 0.000002 0.000000 -0.000000 -0.000001 0.730852 24.928268 4.375585 -25.324449 -0.858607 18.489182 -23.354167 71.848474 27.612098 -23.749254 -6.522063 9.968974 -9.251659 -6.808239 11.229894 20.814633 -5.700170 -8.309117 0.000003 0.000016 -0.000004 0.000002 0.000001 -0.000001 -1.095574 -0.576463 47.082229 -2.636899 0.069265 42.139416 0.000003 -0.000003 -0.000006 0.000002 -0.000000 -0.000000 -102.261340 -1.594278 16.526408 132.136744 -14.533321 -3.363632 -4.958174 2.355558 -5.950506 0.247982 2.660609 -2.105715 -0.000000 0.000001 0.000001 -97.402876 9.919479 -3.038620 112.020942 5.364766 -5.387576 16.757355 5.969363 14.959977 -6.045369 -8.381429 7.709011 -0.000000 0.000000 0.000000 
-3.716066 120.103409 7.203281 -227.642159 1.570574 16.142008 12.820251 1.227417 0.174638 25.639629 2.337672 0.259451 25.639630 2.337675 0.259453 -13.672055 -4.559821 -1.903231 -29.685973 -6.850353 -0.281858 0.000000 -0.000000 0.000001 -1.854389 -35.287199 -8.412499 -11.195800 11.067273 -18.457531 -85.867356 -71.902870 -85.976495 -23.361197 -20.041274 -10.762660 1.043398 -1.348081 -37.564876 -1.629502 -0.335162 -31.265123 -0.000002 -0.000003 -0.000001 -0.000002 -0.000003 0.000000 -8.811860 5.289790 3.386047 -0.778570 0.324235 0.334117 -0.000004 -0.000007 0.000002 -0.000000 0.000000 0.000001 0.837439 25.129610 3.673529 -24.012650 -2.734425 18.239945 -17.191094 72.401767 20.157372 -20.651232 -2.312608 8.373215 -13.688371 -7.953324 9.297248 20.852400 -5.729367 -8.257132 0.000001 0.000016 -0.000004 -0.000001 0.000000 -0.000000 -1.033962 -0.979400 44.620219 -2.709905 0.152315 43.266202 -0.000000 -0.000003 -0.000009 0.000001 -0.000002 0.000002 -116.988122 -5.202542 20.170069 126.652471 -11.757447 -5.198987 10.373487 3.176128 -9.580123 -0.991702 -2.521598 1.806120 -0.000000 -0.000000 0.000000 -96.197545 9.966757 -6.211693 105.638704 3.452596 -4.606249 14.080730 6.882203 14.650163 -6.018643 -6.252739 5.603891 0.000001 0.000000 -0.000000 
-4.061047 110.542999 6.936096 -245.125982 -3.446417 17.722729 12.024109 1.389277 -0.540161 24.057540 2.059431 -1.084024 24.057545 2.059437 -1.084020 -7.537109 -4.680342 0.585280 -27.288084 -5.102743 0.347237 0.000001 -0.000000 -0.000001 -0.534582 -33.340742 -3.842693 -9.719054 13.047793 -21.501965 -100.857394 -73.706436 -100.157976 -20.204856 -20.998440 -5.223570 0.800172 -1.136657 -36.722464 -1.629811 -0.337620 -31.285408 -0.000004 -0.000004 -0.000001 0.000003 -0.000001 0.000002 -9.778868 5.248863 4.136931 -0.692821 0.490448 0.398715 -0.000003 -0.000005 0.000002 0.000001 -0.000001 0.000001 0.715985 25.530438 3.841437 -23.517699 -1.999235 23.464857 -4.356781 70.982598 6.929977 -14.571100 2.225120 3.596214 -15.679073 -7.605458 7.018059 20.895065 -5.788134 -8.212035 0.000002 0.000013 -0.000004 0.000001 -0.000000 0.000000 -0.889124 -1.471711 41.330851 -2.761008 0.211256 44.066393 0.000001 0.000003 -0.000009 -0.000000 0.000001 -0.000000 -121.470106 -10.343497 19.370066 114.672483 -11.505930 -7.111886 16.793704 3.190548 -8.099410 -4.623364 -4.993558 2.762791 0.000001 0.000000 0.000000 -89.919297 6.159388 -10.505019 92.534064 -2.088518 -2.065913 12.757222 8.147693 13.616531 -2.086462 -1.997564 0.956872 0.000001 0.000002 0.000001 
